<?xml version="1.0" encoding="utf-8"?>
<svg version="1.1" xmlns:xlink="http://www.w3.org/1999/xlink" width="36px" height="24px" xmlns="http://www.w3.org/2000/svg">
  <g transform="matrix(1 0 0 1 -188 -134 )">
    <path d="M 36 14.884883720930247  C 36 19.806976744186045  31.96406250000001 23.815116279069798  27 23.815116279069798  C 26.170312500000023 23.815116279069798  25.49882812499999 23.148837209302314  25.49882812499999 22.325581395348877  C 25.49882812499999 21.502325581395326  26.170312500000023 20.836046511627956  27 20.836046511627956  C 30.308203124999977 20.836046511627956  33.00117187500001 18.163953488372044  33.00117187500001 14.881395348837259  C 33.00117187500001 11.755813953488314  30.536718749999977 9.149999999999977  27.39375000000001 8.947674418604606  L 26.5078125 8.895348837209326  L 26.13164062499999 8.103488372093011  C 24.648046874999977 4.9883720930232585  21.45585937499999 2.975581395348854  18 2.975581395348854  C 14.544140625000011 2.975581395348854  11.351953125000023 4.9883720930232585  9.868359375000011 8.103488372093011  L 9.4921875 8.895348837209326  L 8.609765625000023 8.951162790697708  C 5.463281250000023 9.15348837209308  3.0023437500000227 11.759302325581416  3.0023437500000227 14.884883720930247  C 3.0023437500000227 18.167441860465146  5.6953125 20.839534883720944  9.003515624999977 20.839534883720944  C 9.833203125000011 20.839534883720944  10.504687499999989 21.505813953488428  10.504687499999989 22.329069767441865  C 10.504687499999989 23.152325581395303  9.833203125000011 23.818604651162786  9.003515624999977 23.818604651162786  C 4.039453125000023 23.818604651162786  0.0035156249999772626 19.813953488372135  0.0035156249999772626 14.888372093023236  C 0.0035156249999772626 10.489534883720921  3.2554687499999773 6.777906976744248  7.551562499999989 6.083720930232516  C 9.660937499999989 2.3616279069767643  13.672265625000023 0  18 0  C 22.327734374999977 0  26.33906250000001 2.3616279069767643  28.45195312499999 6.07674418604654  C 32.748046875 6.7709302325581575  36 10.486046511627933  36 14.884883720930247  Z " fill-rule="nonzero" fill="#aeaeae" stroke="none" transform="matrix(1 0 0 1 188 134 )" />
  </g>
</svg>