<?xml version="1.0" encoding="utf-8"?>
<svg version="1.1" xmlns:xlink="http://www.w3.org/1999/xlink" width="12px" height="8px" xmlns="http://www.w3.org/2000/svg">
  <g transform="matrix(1 0 0 1 -200 -149 )">
    <path d="M 11.393181818181802 7.457142857142799  C 11.106818181818198 7.757142857142867  10.735227272727286 7.9035714285714675  10.363636363636374 7.9035714285714675  C 9.992045454545462 7.9035714285714675  9.62045454545455 7.753571428571377  9.33409090909089 7.457142857142799  L 6 3.9642857142856656  L 2.6659090909091105 7.457142857142799  C 2.1000000000000227 8.053571428571445  1.176136363636374 8.053571428571445  0.6102272727272862 7.457142857142799  C 0.040909090909110546 6.860714285714266  0.040909090909110546 5.896428571428601  0.6102272727272862 5.303571428571445  L 4.97386363636366 0.7321428571428896  C 5.539772727272748 0.1357142857142435  6.46363636363634 0.1357142857142435  7.029545454545428 0.7321428571428896  L 11.393181818181802 5.303571428571445  C 11.962499999999977 5.899999999999977  11.962499999999977 6.8642857142857565  11.393181818181802 7.457142857142799  Z " fill-rule="nonzero" fill="#aeaeae" stroke="none" transform="matrix(1 0 0 1 200 149 )" />
  </g>
</svg>