<?xml version="1.0" encoding="utf-8"?>
<svg version="1.1" xmlns:xlink="http://www.w3.org/1999/xlink" width="8px" height="17px" xmlns="http://www.w3.org/2000/svg">
  <g transform="matrix(1 0 0 1 -744 -141 )">
    <path d="M 7.7625 14.138494318181818  C 7.920833333333334 14.291429924242424  8 14.472537878787879  8 14.681818181818182  L 8 16.227272727272727  C 8 16.43655303030303  7.920833333333334 16.617660984848484  7.7625 16.77059659090909  C 7.604166666666667 16.9235321969697  7.416666666666667 17  7.2 17  L 0.8 17  C 0.5833333333333334 17  0.39583333333333337 16.9235321969697  0.2375 16.77059659090909  C 0.07916666666666666 16.617660984848484  0 16.43655303030303  0 16.227272727272727  L 0 14.681818181818182  C 0 14.472537878787879  0.07916666666666666 14.291429924242424  0.2375 14.138494318181818  C 0.39583333333333337 13.985558712121211  0.5833333333333334 13.909090909090908  0.8 13.909090909090908  L 1.6 13.909090909090908  L 1.6 9.272727272727272  L 0.8 9.272727272727272  C 0.5833333333333334 9.272727272727272  0.39583333333333337 9.19625946969697  0.2375 9.043323863636363  C 0.07916666666666666 8.890388257575758  0 8.709280303030301  0 8.5  L 0 6.954545454545454  C 0 6.745265151515149  0.07916666666666666 6.564157196969695  0.2375 6.41122159090909  C 0.39583333333333337 6.2582859848484835  0.5833333333333334 6.181818181818182  0.8 6.181818181818182  L 5.6 6.181818181818182  C 5.816666666666667 6.181818181818182  6.004166666666667 6.2582859848484835  6.1625 6.41122159090909  C 6.320833333333334 6.564157196969695  6.4 6.745265151515149  6.4 6.954545454545454  L 6.4 13.909090909090908  L 7.2 13.909090909090908  C 7.416666666666667 13.909090909090908  7.604166666666667 13.985558712121211  7.7625 14.138494318181818  Z M 6.1625 0.22940340909090995  C 6.320833333333334 0.3823390151515128  6.4 0.5634469696969687  6.4 0.772727272727272  L 6.4 3.09090909090909  C 6.4 3.3001893939393936  6.320833333333334 3.4812973484848473  6.1625 3.634232954545454  C 6.004166666666667 3.7871685606060588  5.816666666666667 3.863636363636364  5.6 3.863636363636364  L 2.4 3.863636363636364  C 2.1833333333333336 3.863636363636364  1.9958333333333336 3.7871685606060588  1.8375 3.634232954545454  C 1.6791666666666667 3.4812973484848473  1.6 3.3001893939393936  1.6 3.09090909090909  L 1.6 0.772727272727272  C 1.6 0.5634469696969687  1.6791666666666667 0.3823390151515128  1.8375 0.22940340909090995  C 1.9958333333333336 0.07646780303030143  2.1833333333333336 0  2.4 0  L 5.6 0  C 5.816666666666667 0  6.004166666666667 0.07646780303030143  6.1625 0.22940340909090995  Z " fill-rule="nonzero" fill="#02fdff" stroke="none" transform="matrix(1 0 0 1 744 141 )" />
  </g>
</svg>